<?xml version="1.0" encoding="UTF-8" standalone="no"?>
<svg
   class="h-6"
   viewBox="0 0 204 37"
   version="1.1"
   id="svg1423"
   xmlns:xlink="http://www.w3.org/1999/xlink"
   xmlns="http://www.w3.org/2000/svg"
   xmlns:svg="http://www.w3.org/2000/svg">
  <defs
     id="defs1415">
    <radialGradient
       cx="-4.619%"
       cy="6.646%"
       fx="-4.619%"
       fy="6.646%"
       r="101.342%"
       gradientTransform="matrix(.8299 .53351 -.5579 .79363 .03 .038)"
       id="a">
      <stop
         stop-color="#00FFC4"
         offset="0%"
         id="stop1410" />
      <stop
         stop-color="#00E1FF"
         offset="100%"
         id="stop1412" />
    </radialGradient>
    <linearGradient
       id="id0"
       gradientUnits="userSpaceOnUse"
       x1="3985.9399"
       y1="3719.8899"
       x2="3985.9399"
       y2="22.3727"
       gradientTransform="translate(-2781.2951,1.3802518)">
   <stop
   offset="0"
   style="stop-opacity:1; stop-color:#373435"
   id="stop78" />

   <stop
   offset="1"
   style="stop-opacity:1; stop-color:#4B4B4D"
   id="stop80" />

  </linearGradient>
    <linearGradient
       id="id3"
       gradientUnits="userSpaceOnUse"
       xlink:href="#id2"
       x1="2346.04"
       y1="711.36401"
       x2="2346.04"
       y2="3570.6599"
       gradientTransform="translate(-2781.2951,1.3802518)">
  </linearGradient>
    <linearGradient
       id="id2"
       gradientUnits="userSpaceOnUse"
       x1="6710.9199"
       y1="175.168"
       x2="6710.9199"
       y2="3530.98">
   <stop
   offset="0"
   style="stop-opacity:1; stop-color:#FFD32F"
   id="stop90" />

   <stop
   offset="1"
   style="stop-opacity:1; stop-color:#F9A132"
   id="stop92" />

  </linearGradient>
    <linearGradient
       id="id5"
       gradientUnits="userSpaceOnUse"
       xlink:href="#id1"
       x1="2348.52"
       y1="2350.9399"
       x2="2348.52"
       y2="1431.74"
       gradientTransform="translate(-2781.2951,1.3802518)">
  </linearGradient>
    <linearGradient
       id="id1"
       gradientUnits="userSpaceOnUse"
       x1="803.20001"
       y1="2905.22"
       x2="803.20001"
       y2="0">
   <stop
   offset="0"
   style="stop-opacity:1; stop-color:#96989A"
   id="stop83" />

   <stop
   offset="0.25098"
   style="stop-opacity:1; stop-color:#CACBCC"
   id="stop85" />

   <stop
   offset="1"
   style="stop-opacity:1; stop-color:white"
   id="stop87" />

  </linearGradient>
    <linearGradient
       id="id4"
       gradientUnits="userSpaceOnUse"
       xlink:href="#id1"
       x1="4715.6802"
       y1="3638.0601"
       x2="4715.6802"
       y2="783.07703"
       gradientTransform="translate(-2781.2951,1.3802518)">
  </linearGradient>
    <linearGradient
       xlink:href="#id1"
       id="linearGradient276"
       gradientUnits="userSpaceOnUse"
       x1="803.20001"
       y1="2905.22"
       x2="803.20001"
       y2="0" />
    <linearGradient
       xlink:href="#id2"
       id="linearGradient278"
       gradientUnits="userSpaceOnUse"
       x1="6710.9199"
       y1="175.168"
       x2="6710.9199"
       y2="3530.98" />
  </defs>
  <g
     id="g900"
     style="clip-rule:evenodd;fill-rule:evenodd;image-rendering:optimizeQuality;shape-rendering:geometricPrecision;text-rendering:geometricPrecision"
     transform="matrix(0.01002756,0,0,0.00977099,87.338875,0.18860589)">
    <path
       class="fil0"
       d="m -2242.2951,2929.3803 h 562 V 570.38025 h 530 V 23.380252 h -1606 V 570.38025 h 514 z m 1813.99993,-1474 h 10 c 228,1 366.000004,121 435.000004,281 41,97 46,247 4,348 -53,129 -155.000004,225 -293.000004,269 -33,10 -69,12 -107,18 -13,3 -25,3 -38,4 h -1 v 0 h -3 l -1,-1 h -2 -1 -2 -2 -1 -2 -1 -3 v 0 h -2 -1 l -2,-1 h -2 -1 -2 -1 l -3,-1 v 0 h -3 v 0 h -2 -2 l -1,-1 h -2 -1 -3 l -2,-1 h -1 -2 l -2,-1 h -1 -2 -1 l -2,-1 v 0 l -3,-1 h -1 -2 -1 l -2,-1 h -1 -1 l -3,-1 v 0 l -3,-1 v 0 h -2 -1 l -2,-1 h -1 l -1,-1 h -2 -1 l -3,-1 -2,-1 h -1 -2 l -1,-1 h -1 l -2,-1 h -2 l -1,-1 v 0 l -3,-1 v 0 h -2 l -1,-1 h -2 l -1,-1 h -1 l -2,-1 v 0 h -3 v -1 h -2 l -1,-1 h -1 l -2,-1 h -1 l -2,-1 v 0 l -2,-1 h -3 v -1 h -2 l -1,-1 h -1 l -2,-1 v 0 l -2,-1 v 0 l -3,-1 v 0 h -2 v -1 h -2 l -1,-1 h -1 l -1,-1 h -1 l -2,-1 v 0 l -2,-1 v 0 h -2 l -1,-1 h -1 l -1,-1 h -1 l -1,-1 c -180.99996,-78 -358.99996,-312 -253.99996,-581 50,-129 143,-221 270.99996,-272 30,-7 61,-15 91,-23 14,-1 28,-3 42,-4 z m 3434.00007,3 -2,-7 -2,-6 v -1 l -3,-7 -2,-6 v -1 c -4,-12 -9,-23 -13,-34 l -3,-7 -2,-7 -3,-6 v -1 l -2,-4 -1,-2 -3,-7 c -2,-6 -5,-12 -8,-18 l -1,-3 c -3,-6 -6,-12 -9,-18 l -3,-6 v -1 l -2,-5 -1,-1 -3,-6 -3,-6 v -1 l -4,-6 -2,-4 -3,-6 -4,-6 -2,-5 -5,-9 -1,-2 -3,-6 -4,-6 -1,-2 -2,-3 -1,-1 -3,-6 v 0 l -3,-5 -1,-1 -4,-6 v 0 l -2,-4 -4,-7 -4,-6 -1,-1 -4,-6 v 0 l -2,-3 -4,-6 -2,-2 v -1 l -1,-1 -6,-8 v -1 l -1,-2 -6,-7 -2,-4 -1,-1 -4,-5 v -1 l -3,-4 -6,-7 -2,-3 -6,-8 -1,-1 v -1 l -8,-9 v -1 l -7,-9 -1,-1 -1,-1 -7,-8 -2,-2 -7,-8 -1,-2 -8,-9 -1,-1 -7,-8 -1,-1 -1,-1 -8,-9 c -195,-211.00005 -433,-316.00005 -712,-316.00005 -128,0 -249,24 -361,72 -113,48 -218,120 -315,216.00005 V 799.38025 H 850.70483 V 3721.3803 h 536.00007 v -1011 c 105,100 210,172 317,216 106,44 220,65 344,65 276,0 515,-106 717,-320 l 8,-9 1,-1 v 0 l 1,-1 7,-8 1,-1 1,-1 v 0 l 1,-1 1,-1 v -1 l 6,-6 1,-1 v 0 -1 l 1,-1 3,-3 1,-1 1,-2 1,-1 h 1 l 2,-2 1,-1 5,-6 1,-1 v -1 0 l 1,-1 5,-7 1,-1 1,-1 v 0 l 2,-2 v -1 h 1232 v 947 h 724 v -947 h 390 v -529 h -390 v -612 h -724 v 612 h -613 l 878,-1879.00005 h -724 z M -483.29517,735.38025 c 610,-9 993,316.00005 1166,741.00005 92,226 116,577 22,821 -101,261 -273.99999,443 -453.99999,623 -69.00001,69 -138.00001,138 -207.000006,207 -87,90 -174.000004,180 -262.000004,270 -31,32 -62,64 -93,96 -28,35 -63,74 -99,101 -55,-56 -109,-112 -164,-168 -80,-83 -160.99996,-167 -240.99996,-250 -49,-49 -97,-98 -145,-147 -48.99997,-48 -97.99997,-96 -146.99997,-145 -37,-39 -74,-78 -110,-118 -35,-42 -76,-80 -110,-125 -81,-107 -145,-216 -198,-354 -41,-107 -60,-231 -60,-378 1,-40 3,-80 4,-120 15,-86 27,-164 50,-239 39,-124 99,-237 168,-332 133,-183 326,-341.00005 561.99997,-418.00005 63,-21 143.99996,-37 220.99996,-55 33,-3 65,-7 97,-10 z M 1703.7049,2926.3803 Z m 344,65 z m 717,-320 z m 10,-1608 z m -1388,-28 z m 143,1289 c -111,-117 -167,-271 -167,-461 0,-186 56,-336 167,-452 111,-115 251,-172 420,-172 168,0 307,58 417,175 110,118 165,268 165,451 0,185 -56,337 -168,456 -112,119 -250,179 -414,179 -169,0 -309,-59 -420,-176 z m -167,-461 z m 167,-452 z m 420,-172 z m 417,175 z m 165,451 z m -168,456 z m -414,179 z"
       id="path101"
       style="fill:url(#id0)" />
    <path
       class="fil3"
       d="m -508.29517,713.38025 c 610,-10 993,316.00005 1167,741.00005 92,226 115,577 21,820 -101,261 -272.99999,443 -454,624 -69,69 -138,138 -206.999996,207 -87,90 -174.000004,180 -261.000004,270 -31,32 -63,64 -94,96 -28,35 -63,74 -99,101 -54,-56 -109,-112 -164,-168 -79.99996,-84 -160.99996,-167 -240.99996,-250 -48,-49 -97,-98 -145,-147 -48.99997,-48 -97.99997,-97 -146.99997,-145 -36,-39 -73,-79 -110,-118 -34,-43 -76,-81 -109,-125 -82,-107 -145,-217 -199,-355 -41,-106 -60,-230 -60,-378 1,-39 3,-79 4,-119 15,-87 27,-165 51,-240 38,-124 98,-236 168,-332 132,-182 325,-340.00005 560.99997,-418.00005 63,-20 144,-37 221.99996,-54 32,-4 64,-7 96,-10 z m 56,720.00005 c 236,-4 378.000004,117 448.0000044,281 40.9999996,96 45.9999996,247 4.00000002,348 -53.00000042,128 -155.00000442,225 -293.00000442,268 -33,11 -69,13 -107,19 -76,13 -154,-15 -203,-36 -180.99996,-78 -358.99996,-313 -253.99996,-582 50,-128 143,-221 270.99996,-271 31,-8 61,-15 92,-23 14,-2 28,-3 42,-4 z"
       id="path103"
       style="fill:url(#id3)" />
    <path
       class="fil4"
       d="m -456.29517,1433.3803 c 237,-4 378.000004,117 448.0000044,281 40.9999996,96 45.9999996,247 5,348 -53.0000004,128 -155.0000044,225 -293.0000044,268 -34,11 -69,13 -108,19 -76,13 -154,-15 -203,-36 -180.99996,-78 -357.99996,-313 -252.99996,-582 50,-128 143,-221 270.99996,-271 30,-8 61,-15 91,-23 14,-2 28,-3 42,-4 z m 0,-130 c 258,-4 466.0000044,123 567,360 56,132 59,315 5,449 -67.999996,166 -201.999996,288 -373,342 -42,13 -78,15 -120,22 -97,16 -193,-6 -281.99996,-44 -287,-124 -436.99997,-453 -322,-748 63,-161 182,-281 342.99996,-344 l 11,-4 11,-3 c 27,-7 54,-14 80,-20 l 13,-4 14,-1 c 12,-1 24,-3 37,-4 l 8,-1 z"
       id="path105"
       style="fill:url(#id5)" />
    <path
       class="fil5"
       d="m 1504.7049,2302.3803 c -111,-118 -167,-271 -167,-461 v 0 c 0,-186 56,-337 167,-452 v 0 c 112,-115 252,-173 421,-173 v 0 c 167,0 306,59 416,176 v 0 c 110,117 165,268 165,451 v 0 c 0,185 -56,337 -168,456 v 0 c -112,119 -250,179 -413,179 v 0 c -169,0 -309,-59 -421,-176 z M 825.70483,777.38025 V 3699.3803 h 536.00007 v -1011 c 105,100 211,171 317,215 v 0 c 106,44 221,66 344,66 v 0 c 276,0 515,-107 717,-321 v 0 c 202,-214 303,-479 303,-797 0,-330 -98,-600 -293,-811 v 0 c -195,-210.00005 -432,-315.00005 -711,-315.00005 -129,0 -249,24 -362,71 -113,48 -218,120 -315,216.00005 v 0 -235.00005 z"
       id="path107"
       style="fill:url(#id4)" />
    <polygon
       class="fil6"
       points="514,2905 1076,2905 1076,546 1606,546 1606,0 0,0 0,546 514,546 "
       id="polygon109"
       style="fill:url(#linearGradient276)"
       transform="translate(-2781.2951,1.3802518)" />
    <polygon
       class="fil7"
       points="7922,2584 7922,2055 7532,2055 7532,1442 6808,1442 6808,2055 6196,2055 7073,175 6349,175 5499,1999 5499,2584 6808,2584 6808,3531 7532,3531 7532,2584 "
       id="polygon111"
       style="fill:url(#linearGradient278)"
       transform="translate(-2781.2951,1.3802518)" />
  </g>
</svg>
