<?xml version="1.0" encoding="utf-8"?>
<svg xmlns="http://www.w3.org/2000/svg" xmlns:xlink="http://www.w3.org/1999/xlink" xml:space="preserve" version="1.1" style="shape-rendering:geometricPrecision;text-rendering:geometricPrecision;image-rendering:optimizeQuality;fill-rule:evenodd;clip-rule:evenodd;width: 300px;height: 135px;" viewBox="0 -2900 9975 9656">
 <defs>
  <style type="text/css">
   <![CDATA[
    .fil1 {fill:#F1F1F2}
    .fil2 {fill:#FFD32F}
    .fil0 {fill:url(#id0)}
    .fil6 {fill:url(#id1)}
    .fil7 {fill:url(#id2)}
    .fil3 {fill:url(#id3)}
    .fil5 {fill:url(#id4)}
    .fil4 {fill:url(#id5)}
   ]]>
  </style>
  <linearGradient id="id0" gradientUnits="userSpaceOnUse" x1="3985.94" y1="3719.89" x2="3985.94" y2="22.3727">
   <stop offset="0" style="stop-opacity:1; stop-color:#373435"/>
   <stop offset="1" style="stop-opacity:1; stop-color:#4B4B4D"/>
  </linearGradient>
  <linearGradient id="id1" gradientUnits="userSpaceOnUse" x1="803.2" y1="2905.22" x2="803.2" y2="0">
   <stop offset="0" style="stop-opacity:1; stop-color:#96989A"/>
   <stop offset="0.25098" style="stop-opacity:1; stop-color:#CACBCC"/>
   <stop offset="1" style="stop-opacity:1; stop-color:white"/>
  </linearGradient>
  <linearGradient id="id2" gradientUnits="userSpaceOnUse" x1="6710.92" y1="175.168" x2="6710.92" y2="3530.98">
   <stop offset="0" style="stop-opacity:1; stop-color:#FFD32F"/>
   <stop offset="1" style="stop-opacity:1; stop-color:#F9A132"/>
  </linearGradient>
  <linearGradient id="id3" gradientUnits="userSpaceOnUse" xlink:href="#id2" x1="2346.04" y1="711.364" x2="2346.04" y2="3570.66">
  </linearGradient>
  <linearGradient id="id4" gradientUnits="userSpaceOnUse" xlink:href="#id1" x1="4715.68" y1="3638.06" x2="4715.68" y2="783.077">
  </linearGradient>
  <linearGradient id="id5" gradientUnits="userSpaceOnUse" xlink:href="#id1" x1="2348.52" y1="2350.94" x2="2348.52" y2="1431.74">
  </linearGradient>
 </defs>
 <g id="Layer_x0020_1">
  <metadata id="CorelCorpID_0Corel-Layer"/>
  <path class="fil0" d="M539 2928l562 0 0 -2359 530 0 0 -547 -1606 0 0 547 514 0 0 2359zm1814 -1474l10 0c228,1 366,121 435,281 41,97 46,247 4,348 -53,129 -155,225 -293,269 -33,10 -69,12 -107,18 -13,3 -25,3 -38,4l-1 0 0 0 -3 0 -1 -1 -2 0 -1 0 -2 0 -2 0 -1 0 -2 0 -1 0 -3 0 0 0 -2 0 -1 0 -2 -1 -2 0 -1 0 -2 0 -1 0 -3 -1 0 0 -3 0 0 0 -2 0 -2 0 -1 -1 -2 0 -1 0 -3 0 -2 -1 -1 0 -2 0 -2 -1 -1 0 -2 0 -1 0 -2 -1 0 0 -3 -1 -1 0 -2 0 -1 0 -2 -1 -1 0 -1 0 -3 -1 0 0 -3 -1 0 0 -2 0 -1 0 -2 -1 -1 0 -1 -1 -2 0 -1 0 -3 -1 -2 -1 -1 0 -2 0 -1 -1 -1 0 -2 -1 -2 0 -1 -1 0 0 -3 -1 0 0 -2 0 -1 -1 -2 0 -1 -1 -1 0 -2 -1 0 0 -3 0 0 -1 -2 0 -1 -1 -1 0 -2 -1 -1 0 -2 -1 0 0 -2 -1 -3 0 0 -1 -2 0 -1 -1 -1 0 -2 -1 0 0 -2 -1 0 0 -3 -1 0 0 -2 0 0 -1 -2 0 -1 -1 -1 0 -1 -1 -1 0 -2 -1 0 0 -2 -1 0 0 -2 0 -1 -1 -1 0 -1 -1 -1 0 -1 -1c-181,-78 -359,-312 -254,-581 50,-129 143,-221 271,-272 30,-7 61,-15 91,-23 14,-1 28,-3 42,-4zm3434 3l-2 -7 -2 -6 0 -1 -3 -7 -2 -6 0 -1c-4,-12 -9,-23 -13,-34l-3 -7 -2 -7 -3 -6 0 -1 -2 -4 -1 -2 -3 -7c-2,-6 -5,-12 -8,-18l-1 -3c-3,-6 -6,-12 -9,-18l-3 -6 0 -1 -2 -5 -1 -1 -3 -6 -3 -6 0 -1 -4 -6 -2 -4 -3 -6 -4 -6 -2 -5 -5 -9 -1 -2 -3 -6 -4 -6 -1 -2 -2 -3 -1 -1 -3 -6 0 0 -3 -5 -1 -1 -4 -6 0 0 -2 -4 -4 -7 -4 -6 -1 -1 -4 -6 0 0 -2 -3 -4 -6 -2 -2 0 -1 -1 -1 -6 -8 0 -1 -1 -2 -6 -7 -2 -4 -1 -1 -4 -5 0 -1 -3 -4 -6 -7 -2 -3 -6 -8 -1 -1 0 -1 -8 -9 0 -1 -7 -9 -1 -1 -1 -1 -7 -8 -2 -2 -7 -8 -1 -2 -8 -9 -1 -1 -7 -8 -1 -1 -1 -1 -8 -9c-195,-211 -433,-316 -712,-316 -128,0 -249,24 -361,72 -113,48 -218,120 -315,216l0 -236 -536 0 0 2922 536 0 0 -1011c105,100 210,172 317,216 106,44 220,65 344,65 276,0 515,-106 717,-320l8 -9 1 -1 0 0 1 -1 7 -8 1 -1 1 -1 0 0 1 -1 1 -1 0 -1 6 -6 1 -1 0 0 0 -1 1 -1 3 -3 1 -1 1 -2 1 -1 1 0 2 -2 1 -1 5 -6 1 -1 0 -1 0 0 1 -1 5 -7 1 -1 1 -1 0 0 2 -2 0 -1 1232 0 0 947 724 0 0 -947 390 0 0 -529 -390 0 0 -612 -724 0 0 612 -613 0 878 -1879 -724 0 -587 1259zm-3489 -723c610,-9 993,316 1166,741 92,226 116,577 22,821 -101,261 -274,443 -454,623 -69,69 -138,138 -207,207 -87,90 -174,180 -262,270 -31,32 -62,64 -93,96 -28,35 -63,74 -99,101 -55,-56 -109,-112 -164,-168 -80,-83 -161,-167 -241,-250 -49,-49 -97,-98 -145,-147 -49,-48 -98,-96 -147,-145 -37,-39 -74,-78 -110,-118 -35,-42 -76,-80 -110,-125 -81,-107 -145,-216 -198,-354 -41,-107 -60,-231 -60,-378 1,-40 3,-80 4,-120 15,-86 27,-164 50,-239 39,-124 99,-237 168,-332 133,-183 326,-341 562,-418 63,-21 144,-37 221,-55 33,-3 65,-7 97,-10zm2187 2191l0 0zm344 65l0 0zm717 -320l0 0zm10 -1608l0 0zm-1388 -28l0 0zm143 1289c-111,-117 -167,-271 -167,-461 0,-186 56,-336 167,-452 111,-115 251,-172 420,-172 168,0 307,58 417,175 110,118 165,268 165,451 0,185 -56,337 -168,456 -112,119 -250,179 -414,179 -169,0 -309,-59 -420,-176zm-167 -461l0 0zm167 -452l0 0zm420 -172l0 0zm417 175l0 0zm165 451l0 0zm-168 456l0 0zm-414 179l0 0z"/>



  <path class="fil3" d="M2273 712c610,-10 993,316 1167,741 92,226 115,577 21,820 -101,261 -273,443 -454,624 -69,69 -138,138 -207,207 -87,90 -174,180 -261,270 -31,32 -63,64 -94,96 -28,35 -63,74 -99,101 -54,-56 -109,-112 -164,-168 -80,-84 -161,-167 -241,-250 -48,-49 -97,-98 -145,-147 -49,-48 -98,-97 -147,-145 -36,-39 -73,-79 -110,-118 -34,-43 -76,-81 -109,-125 -82,-107 -145,-217 -199,-355 -41,-106 -60,-230 -60,-378 1,-39 3,-79 4,-119 15,-87 27,-165 51,-240 38,-124 98,-236 168,-332 132,-182 325,-340 561,-418 63,-20 144,-37 222,-54 32,-4 64,-7 96,-10zm56 720c236,-4 378,117 448,281 41,96 46,247 4,348 -53,128 -155,225 -293,268 -33,11 -69,13 -107,19 -76,13 -154,-15 -203,-36 -181,-78 -359,-313 -254,-582 50,-128 143,-221 271,-271 31,-8 61,-15 92,-23 14,-2 28,-3 42,-4z"/>
  <path class="fil4" d="M2325 1432c237,-4 378,117 448,281 41,96 46,247 5,348 -53,128 -155,225 -293,268 -34,11 -69,13 -108,19 -76,13 -154,-15 -203,-36 -181,-78 -358,-313 -253,-582 50,-128 143,-221 271,-271 30,-8 61,-15 91,-23 14,-2 28,-3 42,-4zm0 -130c258,-4 466,123 567,360 56,132 59,315 5,449 -68,166 -202,288 -373,342 -42,13 -78,15 -120,22 -97,16 -193,-6 -282,-44 -287,-124 -437,-453 -322,-748 63,-161 182,-281 343,-344l11 -4 11 -3c27,-7 54,-14 80,-20l13 -4 14 -1c12,-1 24,-3 37,-4l8 -1 8 0z"/>
  <path class="fil5" d="M4286 2301c-111,-118 -167,-271 -167,-461l0 0c0,-186 56,-337 167,-452l0 0c112,-115 252,-173 421,-173l0 0c167,0 306,59 416,176l0 0c110,117 165,268 165,451l0 0c0,185 -56,337 -168,456l0 0c-112,119 -250,179 -413,179l0 0c-169,0 -309,-59 -421,-176zm-679 -1525l0 2922 536 0 0 -1011c105,100 211,171 317,215l0 0c106,44 221,66 344,66l0 0c276,0 515,-107 717,-321l0 0c202,-214 303,-479 303,-797 0,-330 -98,-600 -293,-811l0 0c-195,-210 -432,-315 -711,-315 -129,0 -249,24 -362,71 -113,48 -218,120 -315,216l0 0 0 -235 -536 0z"/>
  <polygon class="fil6" points="514,2905 1076,2905 1076,546 1606,546 1606,0 0,0 0,546 514,546 "/>
  <polygon class="fil7" points="7073,175 6349,175 5499,1999 5499,2584 6808,2584 6808,3531 7532,3531 7532,2584 7922,2584 7922,2055 7532,2055 7532,1442 6808,1442 6808,2055 6196,2055 "/>
 </g>
</svg>
